<?xml version="1.0" encoding="utf-8"?>
<!-- Generator: Adobe Illustrator 16.0.4, SVG Export Plug-In . SVG Version: 6.00 Build 0)  -->
<!DOCTYPE svg PUBLIC "-//W3C//DTD SVG 1.1//EN" "http://www.w3.org/Graphics/SVG/1.1/DTD/svg11.dtd">
<svg version="1.1" id="Layer_3" xmlns="http://www.w3.org/2000/svg" xmlns:xlink="http://www.w3.org/1999/xlink" x="0px" y="0px"
	 width="580px" height="90px" viewBox="562.097 0 350 36.959" enable-background="new 562.097 0 350 36.959"
	 xml:space="preserve">
<polygon fill="#78A22F" points="562.097,18.516 573.618,24.591 573.618,12.958 "/>
<polygon fill="#FFFFFF" points="582.404,2.089 617.226,2.089 617.226,5.741 587.132,5.741 587.132,16.599 612.282,16.599 
	612.282,20.249 587.132,20.249 587.132,32.466 617.871,32.466 617.871,36.118 582.404,36.118 "/>
<polygon fill="#FFFFFF" points="639.686,18.471 622.274,2.089 628.562,2.089 642.803,15.616 657.204,2.089 663.492,2.089 
	645.973,18.425 664.728,36.118 658.494,36.118 642.91,21.326 627.057,36.118 620.663,36.118 "/>
<polygon fill="#FFFFFF" points="720.334,2.089 756.014,2.089 756.014,5.741 725.063,5.741 725.063,16.506 751.18,16.506 
	751.18,20.157 725.063,20.157 725.063,36.118 720.334,36.118 "/>
<polygon fill="#FFFFFF" points="759.805,2.089 795.487,2.089 795.487,5.741 764.533,5.741 764.533,16.506 790.65,16.506 
	790.65,20.157 764.533,20.157 764.533,36.118 759.805,36.118 "/>
<rect x="800.352" y="2.089" fill="#FFFFFF" width="4.729" height="34.029"/>
<g>
	<path fill="#FFFFFF" d="M852.509,27.084c-4.193,7.067-11.447,9.875-20.958,9.875c-15.154,0-22.301-7.91-22.301-17.787
		c0-11.7,9.081-17.926,22.246-17.926c8.383,0,16.927,2.809,20.42,9.736l-4.083,1.638c-2.74-5.569-8.813-7.909-16.283-7.909
		c-11.178,0-17.465,5.288-17.465,14.977c0,7.817,6.072,13.621,17.896,13.621c7.737,0,13.112-2.809,16.335-8.003L852.509,27.084z"/>
</g>
<rect x="857.319" y="2.089" fill="#FFFFFF" width="4.729" height="34.029"/>
<path fill="#FFFFFF" d="M887.278,33.309c9.512,0,18.057-4.399,18.057-14.744c0-7.583-6.718-13.854-18.057-13.854
	s-18.055,6.271-18.055,13.854C869.223,28.909,877.659,33.309,887.278,33.309 M887.278,1.247c13.274,0,22.893,6.74,22.893,18.067
	c0,12.076-11.605,17.646-22.893,17.646c-11.285,0-22.892-5.57-22.892-17.646C864.386,7.986,874.005,1.247,887.278,1.247"/>
<path fill="#78A22F" d="M676.358,6.806h9.072V1.925c-2.147,0.071-3.72,0.291-5.712,0.635C678.418,4.015,677.304,5.435,676.358,6.806
	 M679.667,35.23c2.006,0.351,3.599,0.574,5.763,0.64v-4.848h-9.924C677.166,33.216,678.898,34.648,679.667,35.23 M675.982,3.392
	c-3.055,0.841-5.814,2-8.164,3.414h5.83C674.619,5.174,675.512,3.981,675.982,3.392 M688.255,31.022v4.861
	c2.518-0.014,4.448-0.23,6.762-0.624c0.425-0.396,2.02-1.914,3.701-4.237H688.255L688.255,31.022z M701.719,6.806h5.272
	c-2.252-1.358-4.877-2.479-7.778-3.311C699.713,4.038,700.691,5.174,701.719,6.806 M706.102,16.028h8.801
	c-0.751-2.682-2.535-4.644-5.097-6.743h-6.462C704.355,11.268,705.76,13.219,706.102,16.028 M698.62,34.47
	c3.12-0.841,5.935-2.012,8.334-3.448h-5.758C700.457,32.154,699.607,33.302,698.62,34.47 M672.957,31.022h-5.096
	c2.206,1.317,4.768,2.42,7.597,3.24C674.484,33.188,673.658,32.103,672.957,31.022 M672.06,9.285h-7.054
	c-2.561,2.099-4.345,4.062-5.096,6.743h9.127C669.559,13.291,671.033,11.325,672.06,9.285 M700.426,9.285h-12.171v6.743h14.893
	C702.827,13.696,701.986,11.773,700.426,9.285 M668.71,21.738h-8.811c0.696,2.535,2.32,4.374,4.649,6.398h6.558
	C669.977,25.795,668.892,23.971,668.71,21.738 M705.978,21.738c-0.378,2.286-1.576,3.922-2.873,6.398h7.159
	c2.329-2.024,3.954-3.863,4.652-6.398H705.978z M672.117,16.028h13.313V9.285h-10.341C673.555,11.87,672.615,13.787,672.117,16.028
	 M694.919,2.526c-2.282-0.387-4.181-0.601-6.664-0.617v4.897h10.781C697.927,5.386,696.569,3.956,694.919,2.526 M673.95,28.136
	h11.48v-6.398h-13.684C672.011,24.398,672.873,26.202,673.95,28.136 M702.958,21.738h-14.702v6.398h12.01
	C701.42,26.153,702.447,24.32,702.958,21.738"/>
<path fill="#FFFFFF" d="M908.663,2.248h0.702c0.426,0,0.766-0.045,0.766-0.467c0-0.408-0.376-0.454-0.766-0.454h-0.702V2.248z
	 M909.251,2.592h-0.589v1.29h-0.424V0.983h1.275c0.723,0,1.041,0.28,1.041,0.805c0,0.503-0.376,0.741-0.808,0.804l0.971,1.29h-0.523
	L909.251,2.592z M909.28,4.488c1.262,0,2.284-0.913,2.284-2.049c0-1.137-1.022-2.057-2.284-2.057s-2.275,0.92-2.275,2.057
	C907.004,3.576,908.018,4.488,909.28,4.488 M909.28,0c1.496,0,2.708,1.085,2.708,2.433c0,1.347-1.212,2.438-2.708,2.438
	c-1.494,0-2.699-1.091-2.699-2.438C906.581,1.085,907.786,0,909.28,0"/>
</svg>